<svg xmlns="http://www.w3.org/2000/svg" height="800" width="1200" viewBox="-30.6567 -10.4605 265.6914 62.763"><path fill="#0451A0" d="M48.028 12.593h7.722V3.248h6.519v24.526H55.75V17.249h-7.722v10.525h-6.524V3.248h6.524zm23.987-9.345l4.818 9.806 4.758-9.806h7.514l-8.994 15.265v9.261h-6.563v-9.261L64.484 3.248zm40.602 15.198c0 6.736-4.339 9.765-10.722 9.765-6.419 0-10.758-3.029-10.758-9.765V3.247h6.524v14.094c0 3.253.882 6.005 4.234 6.005 3.313 0 4.198-2.752 4.198-6.005V3.247h6.524zm20.95 1.438h.075l-.105-16.636h5.988v24.526h-8.106l-8.606-16.757h-.07l.211 16.757h-5.992V3.248h8.321zm17.318-11.777h2.509c4.794 0 7.644 2.54 7.644 7.366 0 4.904-2.745 7.451-7.644 7.451h-2.509V8.107m-6.557 19.667h8.922c8.39 0 14.532-3.193 14.532-12.401 0-9.457-5.964-12.125-14.532-12.125h-8.922zm39.577-9.902h-6.136l3.172-9.555h.069zm-16.22 9.902h6.626l1.941-5.244h9.205l1.836 5.244h7.157l-9.453-24.526h-8.004zm29.151-24.526h6.521v24.526h-6.521z"/><path fill="#FCB817" d="M32.071 27.774H0L16.034 0z"/><path fill="#06A64E" d="M35.842 27.774H3.776L19.812 0z"/><path fill="#0451A0" d="M43.708 35.512h2.623v-3.17h2.204v8.246h-2.204V37.04h-2.623v3.548h-2.204v-8.246h2.204zm12.081-1.625h-3.605v1.733h3.408v1.527h-3.408v1.848h3.741v1.593h-5.906v-8.246h5.77zm6.125 3.365h-2.055l1.076-3.229h.025zm-5.44 3.336h2.237l.643-1.795h3.086l.605 1.795h2.415l-3.175-8.246h-2.684zm12.096-1.802h.026l1.846-6.444h2.226l-2.795 8.246h-2.717l-2.764-8.246h2.34zm6.87-6.444l1.631 3.325 1.605-3.325h2.528l-3.039 5.117v3.129h-2.206v-3.129l-3.043-5.117zm9.739 0h2.204v8.246h-2.204zm9.451 5.578h.026l-.04-5.578h2.016v8.246h-2.741l-2.846-5.658h-.024l.071 5.658h-2.029v-8.246h2.803zm5.773-3.961h.86c1.605 0 2.534.84 2.534 2.498 0 1.625-.896 2.469-2.534 2.469h-.86zm-2.204 6.629h3.019c2.779 0 4.847-1.066 4.847-4.17 0-3.186-2.013-4.076-4.847-4.076h-3.019zm16.154-3.152c0 2.287-1.428 3.291-3.591 3.291-2.157 0-3.613-1.004-3.613-3.291v-5.094h2.202v4.732c0 1.08.291 1.994 1.411 1.994 1.129 0 1.423-.914 1.423-1.994v-4.732h2.168zm1.328 1.092c.557.301 1.358.541 2.268.541.696 0 1.37-.143 1.37-.797 0-1.521-3.908-.566-3.908-3.566 0-1.965 1.939-2.506 3.594-2.506.796 0 1.567.117 2.129.307l-.143 1.688c-.572-.258-1.204-.377-1.833-.377-.563 0-1.476.049-1.476.758 0 1.373 3.91.436 3.91 3.414 0 2.166-1.805 2.738-3.643 2.738-.763 0-1.73-.115-2.457-.35zm6.339-6.186h6.246v1.617h-2.035v6.629h-2.202v-6.629h-2.009zm9.313 1.545h.588c.832 0 1.602.137 1.602.9 0 .975-.901.994-1.602.994h-.588zm-2.202 6.701h2.202v-3.279h.468c.804 0 1.093.352 1.55 1.76l.452 1.52h2.285l-.81-2.271c-.421-.995-.465-1.614-1.173-1.804v-.021c1.068-.229 1.589-.955 1.589-2.088 0-1.404-1.201-2.063-2.631-2.063h-3.932zm8.026-8.246h2.207v8.246h-2.207zm9.583 1.545h-3.587v1.733h3.39v1.527h-3.39v1.848h3.715v1.593h-5.92v-8.246h5.792zm1.498 4.641c.565.301 1.361.541 2.271.541.698 0 1.366-.143 1.366-.797 0-1.521-3.909-.566-3.909-3.566 0-1.965 1.94-2.506 3.599-2.506.796 0 1.575.117 2.132.307l-.144 1.688c-.571-.258-1.206-.377-1.836-.377-.557 0-1.475.049-1.475.758 0 1.373 3.896.436 3.896 3.414 0 2.166-1.791 2.738-3.629 2.738-.769 0-1.728-.115-2.457-.35zm17.658 1.873c-.629.148-1.309.326-2.418.326-2.201 0-4.749-1.097-4.749-4.234 0-2.873 2.013-4.293 4.738-4.293.837 0 1.622.191 2.418.422l-.183 1.77c-.707-.389-1.362-.574-2.113-.574-1.564 0-2.592 1.123-2.592 2.676 0 1.602 1.156 2.576 2.77 2.576.707 0 1.414-.193 2.024-.426zm2.972-3.943c0-1.447.53-2.641 1.875-2.641 1.333 0 1.869 1.193 1.869 2.641 0 1.346-.536 2.611-1.869 2.611-1.345 0-1.875-1.266-1.875-2.611m-2.273 0c0 2.594 1.444 4.27 4.148 4.27 2.698 0 4.123-1.676 4.123-4.27 0-2.652-1.403-4.258-4.123-4.258-2.723 0-4.148 1.605-4.148 4.258m8.783 2.185h1.994v1.945h-1.994zm4.086 3.199h-1.625l.798-3.199h1.991zm4.954-2.916h3.374v1.662h-5.579v-8.246h2.205zm2.417-6.584h6.272v1.617h-2.035v6.629h-2.198v-6.629h-2.039zm9.367 1.617h.851c1.608 0 2.567.84 2.567 2.498 0 1.625-.925 2.469-2.567 2.469h-.851zm-2.168 6.629h2.972c2.82 0 4.886-1.066 4.886-4.17 0-3.186-2.013-4.076-4.886-4.076h-2.972zm8.35-1.945h1.994v1.945h-1.994z"/></svg>