<svg xmlns="http://www.w3.org/2000/svg" height="800" width="1200" viewBox="-16.47033 -15.518725 142.74286 93.11235"><path fill="#4e6589" d="M15.1318 61.9522c-2.2826-.5203-3.5786-3.0933-2.6794-5.3195.8166-2.0216 2.9105-2.8955 5.3565-2.2355l.7389.1994v1.6584l-.3014-.2226c-.5152-.3805-1.0343-.5288-1.8506-.5288-.9188 0-1.386.194-1.9152.7951-.4513.5128-.6193 1.0842-.594 2.0203.0155.577.067.8136.2473 1.136.1382.2474.1846.4079.1182.4087-.0602.0007-.0203.0529.0885.116.1089.063.401.2397.6492.3927.4138.255.5206.2782 1.2859.2781.7124 0 .9127-.0366 1.3679-.2499.2933-.1374.5345-.2208.536-.1854.0014.0354.0454-.009.0974-.0979.1916-.3289.2708-.1443.2708.6311v.7934l-.5233.2314c-.67.2963-2.0134.3794-2.8927.179zm19.9234.004c-.7378-.1636-1.1602-.3921-1.773-.9594-.3607-.334-.6436-.708-.8452-1.1176-.277-.5626-.3059-.7042-.3358-1.6462-.032-1.0098-.0263-1.0447.2855-1.7195.175-.3788.4579-.8478.6286-1.0422.405-.4614 1.1608-.9396 1.7714-1.121.6289-.1867 1.9316-.1866 2.7377.0004.9829.228.962.2039.962 1.1112v.7862l-.3815-.2411c-.591-.3731-1.0915-.5163-1.7897-.5118-.7725.005-1.1914.1299-1.6554.494-.571.448-.8355.9976-.884 1.8363-.0781 1.3487.3186 2.1527 1.31 2.6551.4273.2166.5461.2351 1.2184.1905.7478-.0497 1.387-.2627 1.9273-.6423l.255-.1791v1.6615l-.4316.2028c-.7827.368-1.9915.4655-2.9997.242zm13.5136.036c-.5236-.131-.84-.3198-1.1745-.7007l-.3008-.3426.4683-.4683.4683-.4683.1872.238c.2833.3602.7772.5565 1.333.5298.6044-.029.8704-.1959.9986-.6263.1763-.5918.0369-.7623-1.2309-1.5052-.6272-.3675-1.2811-.7977-1.4531-.9559-1.1232-1.0333-.731-2.7188.7814-3.3578.2511-.106.6182-.1531 1.1696-.1498.9159.006 1.438.1864 1.8708.648l.2633.2808-.4357.4037c-.4783.443-.6009.5173-.6009.3636 0-.1798-.5915-.4693-.9597-.4697-.487-.0003-.9483.2368-1.0804.5558-.177.4271-.0623.6126.8014 1.2963.0584.0462.1292.0608.1575.0325.075-.075 1.221.5845 1.6113.9273.3826.3359.766 1.0886.7673 1.5065.0014.4501-.2597 1.2105-.5235 1.524-.4258.506-1.081.771-1.9795.8004-.4335.0142-.9461-.0137-1.139-.062zm23.002.0345c-.1402-.024-.255-.085-.255-.1355 0-.0506-.0399-.0674-.0887-.0373-.1526.0943-.7708-.2216-1.1366-.5808-.6613-.6493-.751-1.0568-.7897-3.59-.0187-1.224-.0007-2.476.04-2.782l.074-.5565.7187-.0271.7185-.0271.003 2.0673c.002 1.137.0433 2.3803.0926 2.7629.1378 1.0671.5111 1.4548 1.4819 1.5386.5123.0442.6638.0198 1.0172-.1637.7676-.3987.786-.4774.821-3.531l.0306-2.6663H75.86v2.6304c0 1.4467-.0405 2.8437-.09 3.1044-.0987.5211-.5263 1.2519-.6776 1.1584-.0527-.0326-.07-.0176-.0387.033.0796.1288-.3729.4435-.9164.6374-.4503.1606-2.0052.2605-2.5665.1648zm34.592-.0337c-.3952-.0991-.9596-.4357-1.2214-.7283-.154-.172-.1615-.2282-.0572-.423.0661-.1237.262-.3623.4354-.5303l.3152-.3055.2058.245c.429.5108 1.336.7025 1.9129.4043.3206-.1658.5103-.5932.4285-.9656-.0707-.3217-.3721-.5683-1.3498-1.104-1.5519-.8503-1.9762-1.3378-1.9813-2.2767-.004-.6399.1412-.9886.6006-1.448.534-.534.9364-.674 1.9305-.6713.4895.001.9943.0435 1.1218.0939.2934.1158.8061.4986.8134.6072.003.0453.0584.115.123.155.0836.0517-.015.1936-.3398.4896l-.4574.4169-.2612-.2474c-.2265-.2146-.339-.2473-.8503-.2473-.496 0-.6271.0356-.8286.2248-.439.4125-.2091 1.248.3963 1.4402.1095.0347.199.1045.199.1551 0 .0506.0401.0672.0891.037.2557-.1581 2.2285 1.2116 2.0834 1.4464-.0277.0448-.0102.0814.0388.0814.1237 0 .2927.5197.2927.9001 0 .9115-.3993 1.5732-1.219 2.0198-.4217.2297-.6156.2741-1.285.2941-.4335.013-.9444-.0156-1.1353-.0635zM1.8485 60.1637c-.0035-.9564-.0072-2.3544-.0082-3.1067l-.0018-1.368H0v-1.2983l1.9707-.007c1.0839-.004 2.2628-.0143 2.6198-.0232l.6492-.0162.0272.6724.0273.6724H3.4313v6.2134H1.8548l-.0064-1.7388zm4.5507-2.0651v-3.804l2.2025.0249 2.2025.0249.0273.6723.0272.6724h-2.883v1.5765h2.883l-.0272.6724-.0273.6723-1.4142-.006-1.4143-.006v2.0057h2.8748v1.2983H6.3991v-3.804zm13.7252.002v-3.8023l.8115.001.8114.001 1.4375 2.0147c.7906 1.1081 1.427 2.0465 1.4142 2.0853-.0127.0388.0165.0706.065.0706.0483 0 .285.2817.526.626.241.3443.477.6677.5244.7187.0534.0573.0738-.9692.0535-2.6894l-.0328-2.7821.765-.027.7652-.027v7.6193l-.8115-.0268-.8114-.0268-.865-1.2056a1621.389 1621.389 0 01-1.9734-2.759c-.6097-.8543-1.1307-1.5533-1.1579-1.5533-.0271 0-.0439.3443-.0373.7651.0066.4208.0092 1.6728.0057 2.7821l-.0063 2.0171h-1.4838zm8.9029 0v-3.8023h1.5765v7.6046h-1.5765zm10.1085 3.7678c0-.0321 1.5194-4.0191 2.4664-6.4719l.4174-1.0812.9371.0147.9371.0147.171.51c.094.2806.2122.5936.2627.6956.0505.102.4949 1.2497.9876 2.5503a4764.471 4764.471 0 001.1601 3.0604c.1454.3825.2646.706.2647.7187.0002.0128-.4114.0232-.9147.0232h-.915l-.2976-.7883-.2975-.7883H41.373l-.2567.7883-.2568.7883h-.8618c-.474 0-.862-.0155-.862-.0345zm4.7245-3.0027c-.0028-.0893-.226-.83-.4958-1.6461l-.4907-1.4838-.1207.391c-.0665.2152-.1559.3695-.1987.343-.0429-.0265-.0548.0123-.0264.0861.0283.0738-.0974.6111-.2793 1.194-.182.5827-.3308 1.1087-.3308 1.1688 0 .077.2883.1093.9738.1093.8675 0 .9731-.0177.9686-.1623zm12.9884-.7764v-3.8136l1.6925.048c.9309.0265 1.8477.0958 2.0374.154 1.4907.458 1.7846 2.746.465 3.62-.2334.1547-.5052.2811-.6039.2811-.2361 0-.2414-.0113.8565 1.8618.5123.8739.9314 1.607.9314 1.629 0 .022-.4043.028-.8984.0134l-.8984-.0265-.931-1.6404c-.5122-.9023-.9385-1.6326-.9474-1.623-.0192.0209-.1174 2.3473-.1231 2.9157l-.004.3941h-1.5766zm2.9168-.6764c.1728-.0722.3619-.2205.4202-.3295.1587-.2965.1398-.9119-.034-1.1039-.0827-.0913-.1293-.187-.1037-.2126.0563-.0564-.003-.0658-.8514-.1356l-.6662-.0549-.0293.9841-.0293.984.4898-.0001c.2695-.0001.6312-.0593.804-.1315zm3.4822.6877v-3.8023h4.4514v1.3911H66.318c-1.5527 0-1.4947-.0282-1.4925.7263.002.8941-.0746.8502 1.4974.8502h1.3843l-.0272.6679-.0272.6678-1.3447.0373c-.7395.0205-1.3538.0456-1.3649.0556-.0745.0674-.131 1.1348-.0786 1.4843l.0638.4257h2.7708v1.2983h-4.4514zm14.3038.0232l.0242-3.779.8066-.0268.8066-.0267.5.6759c.275.3717.7258.9946 1.0018 1.384.7393 1.0435 2.5182 3.5115 2.531 3.5116.006 0-.002-1.2537-.0184-2.786l-.0294-2.7861.7713.027.7713.027.0242 3.7826.0242 3.7825-.8588-.0267c-.4724-.0147-.845-.0637-.8278-.109.0171-.0453-.0116-.1088-.0638-.141-.0522-.0324-.7212-.9342-1.4867-2.0043-.7654-1.07-1.426-1.9873-1.4678-2.0383-.0419-.051-.2758-.3744-.5198-.7187-.244-.3443-.452-.626-.4622-.626-.0102 0-.007 1.2728.007 2.8285l.0258 2.8285h-1.5839zm8.9735-.0232v-3.8023h1.5765v7.6046H86.525zm3.3385-.0133v-3.8156l1.878.0521c1.3095.0364 2.0196.096 2.3458.1968 1.347.4162 2.3053 1.7382 2.4272 3.3481.118 1.5584-.7014 3.023-2.014 3.6002-.8012.3523-1.3778.434-3.065.434h-1.572zm4.0562 2.1084c.2705-.1814.4728-.426.6491-.7852.2216-.451.257-.6378.2624-1.3795.004-.4718-.028-.8578-.0696-.8578s-.0757-.0542-.0757-.1206c0-.251-.509-.891-.873-1.0974-.3155-.179-.5459-.221-1.376-.2507l-.9969-.0357v2.3596c0 1.2978.0313 2.3915.0696 2.4304.0383.0389.5078.0549 1.0433.0356.8854-.032 1.0095-.0591 1.3668-.2987zm2.939 1.5484c.03-.0912.6735-1.7934 1.43-3.7826l1.3756-3.6168.9249-.0263.9249-.0263 1.0962 2.8547c.9402 2.4484 1.616 4.2027 1.7875 4.64.0345.088-.1769.116-.8785.116h-.924l-.3032-.7841-.3031-.7841-1.5099-.0274c-.8304-.0151-1.4938-.002-1.4743.0299.0196.0315-.0842.3862-.2306.7883l-.2663.731-.8519.0267c-.7831.0247-.8475.0135-.7973-.139zm4.6887-2.832c-.003-.2635-1.0087-3.1651-1.053-3.0373-.0265.0765-.2198.7025-.4296 1.3911s-.4186 1.3667-.4641 1.507l-.0827.255h1.0153c.751 0 1.015-.0302 1.014-.1159zM61.671 46.6004l-.4173-.047.637-.1655c3.046-.7918 6.0122-2.8014 7.577-5.1334.2686-.4004.5336-.7587.5887-.7961.055-.0375.0648-.0688.0215-.0695-.0433-.0007.008-.1478.113-.3266.292-.4947.8208-2.1245.993-3.0598.123-.6684.1674-1.7954.2232-5.657.0744-5.1556.0797-5.2148.5954-6.723.1307-.3823.2777-.7084.3267-.7247.049-.0163.0695-.0806.0456-.143-.024-.0622.0385-.201.1387-.3086.1002-.1076.1624-.2153.1383-.2394-.024-.0241.1631-.352.416-.7286.6095-.9074 1.9102-2.2008 2.0844-2.0726.0322.0237.0391.0167.0153-.0156-.0238-.0323.056-.1366.177-.2318.3556-.2797 1.6382-.9199 1.7297-.8633.0462.0286.084.0143.084-.0317 0-.0866 1.3089-.509 2.0403-.6585.2295-.0469.699-.1135 1.0433-.1481l.626-.063V46.601l-7.9523.0202c-4.3738.011-8.5992.0215-9.3898.0232-.7906.002-1.6252-.0181-1.8547-.044zm-17.2029-.0635c-2.7339-.3563-5.0584-1.2918-6.6258-2.6666-1.0765-.9443-2.3922-2.5546-2.2609-2.7671.0324-.0523.0176-.0697-.0328-.0386-.125.0773-.8816-1.4612-1.23-2.501-.1563-.4668-.3776-1.2595-.4916-1.7614-.2054-.9048-.2074-.9875-.2341-9.6995l-.027-8.787h-9.4556l.024-4.6137.0241-4.6137 2.7822-.0541c2.1404-.0416 2.8944-.0878 3.269-.2003.2678-.0804.4875-.1186.4883-.085.0007.0337.032.0146.0695-.0423.0812-.1232.8727-.545.9724-.518.0382.0102.0619-.0126.0525-.0509-.0094-.0382.175-.2648.4095-.5034.4736-.482.8935-1.2954 1.1404-2.2092.1285-.476.1717-1.105.2051-2.9891l.0423-2.3864L38.31.0248 43.0307 0v9.042h9.3665V.0464h28.4706V9.042h-.3095c-.9806 0-3.1915.4721-4.8374 1.033-1.039.3542-3.1713 1.2925-3.8023 1.6733-.153.0923-.3095.168-.3478.1682-.0382.0002-.0695-.6465-.0695-1.437V9.042h-19.104v9.2738h-9.3646l-.0242 8.317c-.0268 9.222-.0435 8.9414.5755 9.689.3025.3654 1.1112.8198 1.4588.8198.1175 0 .2136.0314.2136.0696 0 .0383 1.6064.0582 3.57.0442l3.57-.0254.0236-9.434.0236-9.4339 4.661-.024 4.661-.024-.003 8.5182-.003 8.5183-.2346.4706c-.2836.5693-.674.8823-1.478 1.1849-.6054.2278-.6125.2282-4.1283.2282h-3.5219v9.3666l-3.8254-.014c-2.104-.008-3.9507-.0301-4.1037-.0501z"/></svg>